<?xml version="1.0" encoding="utf-8"?>
<!-- Generator: Adobe Illustrator 23.0.3, SVG Export Plug-In . SVG Version: 6.00 Build 0)  -->
<svg version="1.1" id="Layer_1" xmlns="http://www.w3.org/2000/svg" xmlns:xlink="http://www.w3.org/1999/xlink" x="0px" y="0px"
	 width="432px" height="432px" viewBox="0 0 432 432" style="enable-background:new 0 0 432 432;" xml:space="preserve">
<g transform="translate(0.000000,1650.000000) scale(0.100000,-0.100000)">
	<path d="M1998.1,16147.4c-297.7-15.3-564-72.4-675-144c-71.6-46.7-82.9-94.1-33-143.2l24.1-24.9l-21.7-16.9
		c-50.7-39.4-56.3-84.5-15.3-125.5l27.4-27.4l-31.4-31.4c-53.1-52.3-41-98.9,33-129.5l24.1-9.7l-50.7-53.9
		c-57.1-60.3-76.4-107-98.2-231.7c-6.4-38.6-20.9-114.2-32.2-167.3c-26.6-133.5-37-371.6-41.8-1002.3
		c-5.6-647.6,0.8-751.3,66-1039.3c36.2-162.5,99.8-334.6,139.2-378.9c62-68.4,193.1-115.8,448.1-163.3
		c119.9-22.5,122.3-22.5,470.7-22.5c304.1,0,360.4,2.4,426.4,14.5c134.4,25.7,251.8,73.2,356.4,144
		c108.6,74,189.1,230.9,234.9,460.9c41,206.7,48.3,387.7,37,913c-14.5,635.5-32.2,993.5-57.9,1142.3
		c-25.7,150.4-63.6,296-82.9,320.2c-41,50.7-40.2,45.9-0.8,69.2c41,24.1,52.3,41,52.3,78c0,19.3-7.2,33-31.4,55.5l-30.6,29
		l26.6,29.8c37.8,41,37,70.8-4,111l-31.4,31.4l27.4,27.3c86.9,86.9-41.8,181.8-318.6,237.3
		C2599.9,16146.6,2303.8,16163.5,1998.1,16147.4z M2428.5,16067.8c350.8-23.3,588.1-93.3,534.2-157.7
		c-32.2-38.6-174.6-81.2-353.2-104.6c-135.2-17.7-517.3-24.1-672.6-12.1c-264.7,21.7-458.6,70.8-486.8,123.1
		c-8,15.3-6.4,20.1,15.3,39.4C1560.4,16040.5,2023,16094.4,2428.5,16067.8z M2965.1,16027.6c94.1-29.8,160.1-68.4,171.4-99.7
		c7.2-20.9,5.6-24.9-26.6-52.3c-18.5-16.1-33.8-35.4-33.8-42.6c0-7.2,12.1-21.7,26.6-31.4c57.1-39.4,61.1-69.2,13.7-100.6
		c-38.6-25.7-42.6-51.5-11.3-68.4c11.3-5.6,29.8-20.9,40.2-33.8c24.9-29.8,16.9-45-41-78c-24.1-13.7-44.3-30.6-44.3-37.8
		c0-7.2,12.9-26.5,29-44.2c37.8-42.6,45.1-61.9,74-195.5c29.8-137.6,49.9-270.3,49.1-322.6c-0.8-37.8-1.6-37.8-12.1,20.9
		c-5.6,33-18.5,94.1-28.2,135.1c-14.5,63.5-19.3,74-33,74c-13.7,0-15.3-3.2-10.5-21.7c9.7-38.6,28.2-140,41-223.6
		c27.4-176.2,23.3-1458.4-5.6-1725.5c-24.1-219.6-79.7-396.6-153.7-486.7c-49.1-58.7-210.8-121.5-362.9-140.8
		c-84.5-10.5-580.9-10.5-721.7,0c-207.6,16.1-424.8,58.7-501.2,98.9c-49.1,25.7-93.3,70-118.3,119.1c-24.1,46.7-69.2,204.3-92.5,321
		c-33.8,174.6-38.6,284.8-33,732c4,388.5,10.5,551.8,29,844.6c9.7,135.1,41.8,304.1,79.7,411.9c8.9,25.7,12.9,48.3,8.9,50.7
		c-14.5,8.8-39.4-66-75.6-226c-37-159.3-60.3-633.1-62-1238c-1.6-405.4-9.7-402.2-19.3,6.4c-5.6,249.4,4.8,800.4,20.1,1115.7
		c6.4,124.7,14.5,195.5,33,289.6c53.1,273.5,63.6,300,144,368.4c53.1,45.9,52.3,61.1-3.2,86.9c-73.2,33-75.6,51.5-16.1,92.5
		c19.3,12.9,35.4,30.6,35.4,38.6s-14.5,25.7-32.2,40.2c-44.3,35.4-42.6,56.3,4,90.1c44.3,32.2,46.7,52.3,8,77.2
		c-33,21.7-44.3,53.1-24.9,74c17.7,20.1,82.9,54.7,138.4,73.2c64.4,22.5,73.2,19.3,15.3-4c-57.9-24.1-84.5-42.6-100.6-70.8
		c-10.5-19.3-10.5-22.5,4.8-43.4c73.2-98.9,486-164.9,952.6-152c419.2,11.3,732.2,78.8,753.1,160.9c12.1,48.3-26.6,81.2-139.2,117.4
		c-38.6,12.9-64.4,23.3-57.1,24.1C2884.7,16051.7,2924.1,16041.3,2965.1,16027.6z M2898.4,16018.7c91.7-25.7,161.7-65.2,161.7-91.7
		c0-29-78.8-70.8-183.4-97.3c-99-24.9-121.5-24.1-35.4,1.6c107,31.4,146.4,58.7,146.4,99.7c0,33.8-29.8,57.1-111.8,85.3
		C2808.3,16039.7,2819.5,16040.5,2898.4,16018.7z M3250,13545.9c-4-345.1-20.1-469-81.3-649.2c-57.9-172.1-128.7-256.6-272.7-328.2
		c-153.7-74.8-266.3-94.9-572-102.2c-252.6-4.8-418.4,4-580.1,33.8c-201.9,37-333.1,82.1-387.8,135.1c-23.3,21.7-66,90.9-66,106.2
		c0,2.4,20.1-16.1,44.3-42.6c24.1-25.7,60.3-56.3,80.5-66.8c20.1-10.5,36.2-23.3,36.2-28.2c0-20.1,116.7-52.3,277.6-76.4
		c127.1-19.3,537.4-35.4,744.2-28.2c210.8,6.4,295.3,24.1,431.2,89.3c205.2,98.9,302.5,324.2,325,753.7c4,85.3,8.9,333,8.9,549.4
		l1.6,394.2l7.2-229.3C3250.8,13930.5,3252.4,13701.2,3250,13545.9z M3213,13445.4c-4-126.3-13.7-264.7-20.1-308.9
		c-12.1-78.8-44.3-217.2-49.1-211.6c-1.6,0.8,6.4,50.7,17.7,109.4c10.5,59.5,23.3,160.9,27.4,225.2c8.9,128.7,23.3,582.4,25.7,829.4
		c1.6,90.9,3.2,37,4.8-128.7C3221,13803.4,3217.8,13571.7,3213,13445.4z"/>
	<path d="M2967.6,15724.3c-278.4-85.3-712.8-118.3-1077.3-82.9c-119.9,12.1-312.2,45-399.1,69.2c-115.1,32.2-112.6,31.4-112.6,12.9
		c0-12.1,12.1-20.9,53.9-37.8c259.9-103.8,745.8-140.8,1162.6-87.7c223.7,28.2,465,101.4,452.2,135.9
		C3041.6,15748.5,3047.2,15749.3,2967.6,15724.3z M1619.9,15662.4c206-40.2,307.3-49.1,583.3-49.1c270.3,0,390.2,9.7,574.5,45
		c45.9,8.8,84.5,14.5,86.1,12.9c4.8-4.8-144-37-231.7-49.9c-300.1-43.4-699.2-35.4-971.9,20.1c-69.2,14.5-154.5,37.8-144.8,39.4
		C1517.7,15680.9,1564.4,15672.8,1619.9,15662.4z"/>
	<path d="M1381,15562.6c-2.4-6.4,0-14.5,6.4-18.5c33.8-20.9,237.3-61.1,401.5-80.4c193.9-21.7,610.7-21.7,820.7,0.8
		c208.4,21.7,438.5,76.4,428.8,101.4c-3.2,8-10.5,11.3-21.7,8c-204.4-50.7-534.2-85.3-817.4-85.3c-238.2,0-541.5,28.2-726.5,67.6
		C1397.9,15571.5,1384.2,15573.1,1381,15562.6z"/>
	<path d="M2802.6,15433.9c-20.1-16.1-16.1-33.8,7.2-33.8c8,0,61.1-23.3,117.5-52.3s112.6-52.3,125.5-52.3
		c53.9,0,60.3,77.2,10.5,127.1l-25.7,25.7h-108.6C2835.6,15448.4,2817.9,15446,2802.6,15433.9z M3031.1,15424.3
		c25.7-9.7,46.7-49.9,43.4-82.9c-2.4-23.3-4.8-25.7-26.6-24.1c-32.2,2.4-234.1,104.6-215.6,109.4
		C2859.7,15433.9,3011,15432.3,3031.1,15424.3z"/>
	<path d="M1278,13612.7c-23.3-100.6-29-139.2-37-228.5c-15.3-176.2,2.4-310.5,61.1-461.7c34.6-91.7,66.8-144,90.1-149.6
		c12.9-3.2,24.1,3.2,44.3,24.9c20.9,22.5,38.6,32.2,78,42.6c73.2,19.3,72.4,29-6.4,58.7c-63.6,23.3-108.6,92.5-148,224.4
		c-29,96.5-37,146.4-45.9,297.6c-9.7,160.9-15.3,209.1-24.9,209.1C1285.2,13630.4,1280.4,13622.4,1278,13612.7z M1317.4,13208.9
		c24.9-121.5,76.4-244.5,120.7-288.8c14.5-14.5,41-31.4,59.5-37c40.2-13.7,37.8-20.9-8-28.2c-24.9-4-41-13.7-62.8-37
		c-28.2-30.6-30.6-31.4-41.8-17.7c-46.7,52.3-103,214.8-123.9,358.8c-11.3,74-11.3,103.8-3.2,197.1c4.8,60.3,12.9,129.5,18.5,153.6
		c8.9,42.6,8.9,40.2,18.5-98.1C1300.5,13332.8,1310.2,13241.9,1317.4,13208.9z"/>
	<path d="M1901.5,12857.4c-233.3-16.1-438.5-58.7-479.5-99.7c-24.1-24.1-24.1-29,0.8-59.5c26.6-30.6,114.2-65.2,237.3-92.5
		c341.1-74.8,833.5-68.4,1124,16.1c106.2,30.6,179.4,74,179.4,105.4C2963.5,12822.8,2405.2,12891.1,1901.5,12857.4z M2370.6,12842.1
		c361.2-17.7,588.1-67.6,565.6-124.7c-7.2-19.3-52.3-42.6-129.5-67.6c-106.2-33.8-129.5-37-78.8-12.9c49.1,24.1,62,37.8,54.7,58.7
		c-10.5,34.6-144,70-355.6,95.7c-159.3,18.5-545.5,19.3-629.2,0c-75.6-16.9-108.6-36.2-111.8-64.4c-2.4-18.5,1.6-24.1,24.9-33.8
		c71.6-29.8,448.1-39.4,448.1-11.3c0,3.2-49.9,4.8-110.2,2.4c-139.2-5.6-318.6,12.1-338.7,32.2c-12.9,12.9-12.9,14.5,2.4,25.7
		c43.4,32.2,150.5,45.9,366.1,45.9c266.3-0.8,525.4-29.8,639.6-72.4c55.5-20.9,55.5-35.4-1.6-61.1c-113.4-50.7-247-66-513.3-59.5
		c-101.4,3.2-215.6,8.8-253.4,13.7c-181.8,22.5-289.6,43.4-372.5,72.4c-47.5,16.9-87.7,27.4-90.1,24.1c-2.4-4-1.6-8.8,2.4-11.3
		c20.1-12.1,146.4-53.9,197.1-64.4c52.3-11.3,247.8-39.4,331.5-48.3c17.7-1.6-2.4-1.6-44.3,0.8c-234.9,9.7-543.1,90.9-543.1,143.2
		c0,51.5,225.3,100.6,535,115.8C2147.7,12850.9,2194.4,12850.9,2370.6,12842.1z"/>
</g>
</svg>
